<svg xmlns="http://www.w3.org/2000/svg" viewBox="0 0 120 120" role="img" aria-label="Stemë e shkollës  Gjimnazi Petro Nini Luarasi">
  <defs>
    <linearGradient id="g" x1="0%" y1="0%" x2="100%" y2="100%">
      <stop offset="0%" style="stop-color:#C5A059"/>
      <stop offset="100%" style="stop-color:#9a7840"/>
    </linearGradient>
  </defs>
  <circle cx="60" cy="60" r="58" fill="none" stroke="#ffffff" stroke-width="1.5"/>
  <circle cx="60" cy="60" r="54" fill="none" stroke="#1B2B4B" stroke-width="4"/>
  <circle cx="60" cy="60" r="48" fill="none" stroke="#800000" stroke-width="10"/>
  <circle cx="60" cy="60" r="36" fill="#1B2B4B" stroke="#ffffff" stroke-width="1.2"/>
  <g transform="translate(60,60)">
    <path fill="url(#g)" d="M0,-28 L6,-9 L26,-9 L10,3 L16,23 L0,12 L-16,23 L-10,3 L-26,-9 L-6,-9 Z"/>
    <circle cx="0" cy="0" r="14" fill="#800000" stroke="#C5A059" stroke-width="1"/>
    <circle cx="0" cy="0" r="10" fill="none" stroke="#228B22" stroke-width="2"/>
    <path fill="#ffffff" opacity="0.95" d="M-2,-6c2,-1 5,0 6,2 1,3 -1,6 -3,7 -1,5 2,8 4,9h-14c2,-2 4,-5 3,-9 -2,-1 -4,-4 -3,-7 1,-2 4,-3 7,-2z"/>
  </g>
  <path fill="#1a1a1a" d="M52,98 L60,92 L68,98 L66,100 L60,96 L54,100 Z"/>
</svg>
